<?xml version="1.0" encoding="UTF-8"?>
<svg width="800" height="600" viewBox="0 0 800 600" fill="none" xmlns="http://www.w3.org/2000/svg">
  <!-- Background Elements -->
  <circle cx="400" cy="300" r="250" fill="url(#gradient1)" opacity="0.1"/>
  <circle cx="400" cy="300" r="200" fill="url(#gradient2)" opacity="0.15"/>
  
  <!-- Main Device Frame -->
  <rect x="250" y="150" width="300" height="200" rx="20" fill="url(#gradient3)" stroke="white" stroke-width="2"/>
  
  <!-- Screen Content -->
  <rect x="270" y="170" width="260" height="160" rx="10" fill="#1a237e" opacity="0.8"/>
  
  <!-- Code Elements -->
  <rect x="290" y="190" width="120" height="10" rx="5" fill="white" opacity="0.7"/>
  <rect x="290" y="210" width="80" height="10" rx="5" fill="white" opacity="0.5"/>
  <rect x="290" y="230" width="100" height="10" rx="5" fill="white" opacity="0.7"/>
  <rect x="290" y="250" width="60" height="10" rx="5" fill="white" opacity="0.5"/>
  <rect x="290" y="270" width="140" height="10" rx="5" fill="white" opacity="0.7"/>
  
  <!-- Decorative Elements -->
  <circle cx="150" cy="150" r="30" fill="url(#gradient4)" opacity="0.6"/>
  <circle cx="650" cy="450" r="40" fill="url(#gradient4)" opacity="0.6"/>
  <rect x="100" y="400" width="60" height="60" rx="10" fill="url(#gradient4)" opacity="0.6"/>
  <rect x="640" y="100" width="50" height="50" rx="10" fill="url(#gradient4)" opacity="0.6"/>
  
  <!-- Gradients -->
  <defs>
    <linearGradient id="gradient1" x1="0" y1="0" x2="800" y2="600">
      <stop offset="0%" stop-color="#2196f3"/>
      <stop offset="100%" stop-color="#21cbf3"/>
    </linearGradient>
    <linearGradient id="gradient2" x1="0" y1="0" x2="800" y2="600">
      <stop offset="0%" stop-color="#1a237e"/>
      <stop offset="100%" stop-color="#0d47a1"/>
    </linearGradient>
    <linearGradient id="gradient3" x1="0" y1="0" x2="300" y2="200">
      <stop offset="0%" stop-color="#ffffff"/>
      <stop offset="100%" stop-color="#e3f2fd"/>
    </linearGradient>
    <linearGradient id="gradient4" x1="0" y1="0" x2="100" y2="100">
      <stop offset="0%" stop-color="#2196f3"/>
      <stop offset="100%" stop-color="#21cbf3"/>
    </linearGradient>
  </defs>
</svg> 